<svg id="visual" viewBox="0 0 900 500" width="900" height="500" xmlns="http://www.w3.org/2000/svg" xmlns:xlink="http://www.w3.org/1999/xlink" version="1.1"><path d="M0 61L9.3 61C18.7 61 37.3 61 56.2 61C75 61 94 61 112.8 61C131.7 61 150.3 61 169 61C187.7 61 206.3 61 225 60.2C243.7 59.3 262.3 57.7 281.2 56.8C300 56 319 56 337.8 56C356.7 56 375.3 56 394 56.8C412.7 57.7 431.3 59.3 450 59.3C468.7 59.3 487.3 57.7 506.2 56.8C525 56 544 56 562.8 57.7C581.7 59.3 600.3 62.7 619 63.5C637.7 64.3 656.3 62.7 675 61.8C693.7 61 712.3 61 731.2 60.2C750 59.3 769 57.7 787.8 57.7C806.7 57.7 825.3 59.3 844 59.3C862.7 59.3 881.3 57.7 890.7 56.8L900 56L900 0L890.7 0C881.3 0 862.7 0 844 0C825.3 0 806.7 0 787.8 0C769 0 750 0 731.2 0C712.3 0 693.7 0 675 0C656.3 0 637.7 0 619 0C600.3 0 581.7 0 562.8 0C544 0 525 0 506.2 0C487.3 0 468.7 0 450 0C431.3 0 412.7 0 394 0C375.3 0 356.7 0 337.8 0C319 0 300 0 281.2 0C262.3 0 243.7 0 225 0C206.3 0 187.7 0 169 0C150.3 0 131.7 0 112.8 0C94 0 75 0 56.2 0C37.3 0 18.7 0 9.3 0L0 0Z" fill="#0044a9"></path><path d="M0 156L9.3 157.7C18.7 159.3 37.3 162.7 56.2 163.5C75 164.3 94 162.7 112.8 162.7C131.7 162.7 150.3 164.3 169 165.2C187.7 166 206.3 166 225 165.2C243.7 164.3 262.3 162.7 281.2 162.7C300 162.7 319 164.3 337.8 162.7C356.7 161 375.3 156 394 154.3C412.7 152.7 431.3 154.3 450 156.8C468.7 159.3 487.3 162.7 506.2 162.7C525 162.7 544 159.3 562.8 159.3C581.7 159.3 600.3 162.7 619 163.5C637.7 164.3 656.3 162.7 675 161.8C693.7 161 712.3 161 731.2 161C750 161 769 161 787.8 161.8C806.7 162.7 825.3 164.3 844 163.5C862.7 162.7 881.3 159.3 890.7 157.7L900 156L900 54L890.7 54.8C881.3 55.7 862.7 57.3 844 57.3C825.3 57.3 806.7 55.7 787.8 55.7C769 55.7 750 57.3 731.2 58.2C712.3 59 693.7 59 675 59.8C656.3 60.7 637.7 62.3 619 61.5C600.3 60.7 581.7 57.3 562.8 55.7C544 54 525 54 506.2 54.8C487.3 55.7 468.7 57.3 450 57.3C431.3 57.3 412.7 55.7 394 54.8C375.3 54 356.7 54 337.8 54C319 54 300 54 281.2 54.8C262.3 55.7 243.7 57.3 225 58.2C206.3 59 187.7 59 169 59C150.3 59 131.7 59 112.8 59C94 59 75 59 56.2 59C37.3 59 18.7 59 9.3 59L0 59Z" fill="#0d41a2"></path><path d="M0 176L9.3 177.7C18.7 179.3 37.3 182.7 56.2 183.5C75 184.3 94 182.7 112.8 182.7C131.7 182.7 150.3 184.3 169 185.2C187.7 186 206.3 186 225 185.2C243.7 184.3 262.3 182.7 281.2 182.7C300 182.7 319 184.3 337.8 182.7C356.7 181 375.3 176 394 174.3C412.7 172.7 431.3 174.3 450 176.8C468.7 179.3 487.3 182.7 506.2 182.7C525 182.7 544 179.3 562.8 179.3C581.7 179.3 600.3 182.7 619 183.5C637.7 184.3 656.3 182.7 675 181.8C693.7 181 712.3 181 731.2 181C750 181 769 181 787.8 181.8C806.7 182.7 825.3 184.3 844 183.5C862.7 182.7 881.3 179.3 890.7 177.7L900 176L900 154L890.7 155.7C881.3 157.3 862.7 160.7 844 161.5C825.3 162.3 806.7 160.7 787.8 159.8C769 159 750 159 731.2 159C712.3 159 693.7 159 675 159.8C656.3 160.7 637.7 162.3 619 161.5C600.3 160.7 581.7 157.3 562.8 157.3C544 157.3 525 160.7 506.2 160.7C487.3 160.7 468.7 157.3 450 154.8C431.3 152.3 412.7 150.7 394 152.3C375.3 154 356.7 159 337.8 160.7C319 162.3 300 160.7 281.2 160.7C262.3 160.7 243.7 162.3 225 163.2C206.3 164 187.7 164 169 163.2C150.3 162.3 131.7 160.7 112.8 160.7C94 160.7 75 162.3 56.2 161.5C37.3 160.7 18.7 157.3 9.3 155.7L0 154Z" fill="#153d9b"></path><path d="M0 201L9.3 202.7C18.7 204.3 37.3 207.7 56.2 209.3C75 211 94 211 112.8 211.8C131.7 212.7 150.3 214.3 169 214.3C187.7 214.3 206.3 212.7 225 211C243.7 209.3 262.3 207.7 281.2 207.7C300 207.7 319 209.3 337.8 207.7C356.7 206 375.3 201 394 200.2C412.7 199.3 431.3 202.7 450 206C468.7 209.3 487.3 212.7 506.2 212.7C525 212.7 544 209.3 562.8 209.3C581.7 209.3 600.3 212.7 619 212.7C637.7 212.7 656.3 209.3 675 207.7C693.7 206 712.3 206 731.2 206C750 206 769 206 787.8 206.8C806.7 207.7 825.3 209.3 844 208.5C862.7 207.7 881.3 204.3 890.7 202.7L900 201L900 174L890.7 175.7C881.3 177.3 862.7 180.7 844 181.5C825.3 182.3 806.7 180.7 787.8 179.8C769 179 750 179 731.2 179C712.3 179 693.7 179 675 179.8C656.3 180.7 637.7 182.3 619 181.5C600.3 180.7 581.7 177.3 562.8 177.3C544 177.3 525 180.7 506.2 180.7C487.3 180.7 468.7 177.3 450 174.8C431.3 172.3 412.7 170.7 394 172.3C375.3 174 356.7 179 337.8 180.7C319 182.3 300 180.7 281.2 180.7C262.3 180.7 243.7 182.3 225 183.2C206.3 184 187.7 184 169 183.2C150.3 182.3 131.7 180.7 112.8 180.7C94 180.7 75 182.3 56.2 181.5C37.3 180.7 18.7 177.3 9.3 175.7L0 174Z" fill="#193a94"></path><path d="M0 221L9.3 222.7C18.7 224.3 37.3 227.7 56.2 229.3C75 231 94 231 112.8 231.8C131.7 232.7 150.3 234.3 169 234.3C187.7 234.3 206.3 232.7 225 231C243.7 229.3 262.3 227.7 281.2 227.7C300 227.7 319 229.3 337.8 227.7C356.7 226 375.3 221 394 220.2C412.7 219.3 431.3 222.7 450 226C468.7 229.3 487.3 232.7 506.2 232.7C525 232.7 544 229.3 562.8 229.3C581.7 229.3 600.3 232.7 619 232.7C637.7 232.7 656.3 229.3 675 227.7C693.7 226 712.3 226 731.2 226C750 226 769 226 787.8 226.8C806.7 227.7 825.3 229.3 844 228.5C862.7 227.7 881.3 224.3 890.7 222.7L900 221L900 199L890.7 200.7C881.3 202.3 862.7 205.7 844 206.5C825.3 207.3 806.7 205.7 787.8 204.8C769 204 750 204 731.2 204C712.3 204 693.7 204 675 205.7C656.3 207.3 637.7 210.7 619 210.7C600.3 210.7 581.7 207.3 562.8 207.3C544 207.3 525 210.7 506.2 210.7C487.3 210.7 468.7 207.3 450 204C431.3 200.7 412.7 197.3 394 198.2C375.3 199 356.7 204 337.8 205.7C319 207.3 300 205.7 281.2 205.7C262.3 205.7 243.7 207.3 225 209C206.3 210.7 187.7 212.3 169 212.3C150.3 212.3 131.7 210.7 112.8 209.8C94 209 75 209 56.2 207.3C37.3 205.7 18.7 202.3 9.3 200.7L0 199Z" fill="#1d378d"></path><path d="M0 266L9.3 266.8C18.7 267.7 37.3 269.3 56.2 271C75 272.7 94 274.3 112.8 275.2C131.7 276 150.3 276 169 276.8C187.7 277.7 206.3 279.3 225 278.5C243.7 277.7 262.3 274.3 281.2 274.3C300 274.3 319 277.7 337.8 275.2C356.7 272.7 375.3 264.3 394 261.8C412.7 259.3 431.3 262.7 450 267.7C468.7 272.7 487.3 279.3 506.2 279.3C525 279.3 544 272.7 562.8 271C581.7 269.3 600.3 272.7 619 272.7C637.7 272.7 656.3 269.3 675 268.5C693.7 267.7 712.3 269.3 731.2 270.2C750 271 769 271 787.8 271.8C806.7 272.7 825.3 274.3 844 272.7C862.7 271 881.3 266 890.7 263.5L900 261L900 219L890.7 220.7C881.3 222.3 862.7 225.7 844 226.5C825.3 227.3 806.7 225.7 787.8 224.8C769 224 750 224 731.2 224C712.3 224 693.7 224 675 225.7C656.3 227.3 637.7 230.7 619 230.7C600.3 230.7 581.7 227.3 562.8 227.3C544 227.3 525 230.7 506.2 230.7C487.3 230.7 468.7 227.3 450 224C431.3 220.7 412.7 217.3 394 218.2C375.3 219 356.7 224 337.8 225.7C319 227.3 300 225.7 281.2 225.7C262.3 225.7 243.7 227.3 225 229C206.3 230.7 187.7 232.3 169 232.3C150.3 232.3 131.7 230.7 112.8 229.8C94 229 75 229 56.2 227.3C37.3 225.7 18.7 222.3 9.3 220.7L0 219Z" fill="#1f3486"></path><path d="M0 291L9.3 291.8C18.7 292.7 37.3 294.3 56.2 296C75 297.7 94 299.3 112.8 300.2C131.7 301 150.3 301 169 301.8C187.7 302.7 206.3 304.3 225 302.7C243.7 301 262.3 296 281.2 295.2C300 294.3 319 297.7 337.8 296C356.7 294.3 375.3 287.7 394 285.2C412.7 282.7 431.3 284.3 450 288.5C468.7 292.7 487.3 299.3 506.2 299.3C525 299.3 544 292.7 562.8 291C581.7 289.3 600.3 292.7 619 293.5C637.7 294.3 656.3 292.7 675 292.7C693.7 292.7 712.3 294.3 731.2 295.2C750 296 769 296 787.8 296C806.7 296 825.3 296 844 294.3C862.7 292.7 881.3 289.3 890.7 287.7L900 286L900 259L890.7 261.5C881.3 264 862.7 269 844 270.7C825.3 272.3 806.7 270.7 787.8 269.8C769 269 750 269 731.2 268.2C712.3 267.3 693.7 265.7 675 266.5C656.3 267.3 637.7 270.7 619 270.7C600.3 270.7 581.7 267.3 562.8 269C544 270.7 525 277.3 506.2 277.3C487.3 277.3 468.7 270.7 450 265.7C431.3 260.7 412.7 257.3 394 259.8C375.3 262.3 356.7 270.7 337.8 273.2C319 275.7 300 272.3 281.2 272.3C262.3 272.3 243.7 275.7 225 276.5C206.3 277.3 187.7 275.7 169 274.8C150.3 274 131.7 274 112.8 273.2C94 272.3 75 270.7 56.2 269C37.3 267.3 18.7 265.7 9.3 264.8L0 264Z" fill="#213080"></path><path d="M0 316L9.3 316.8C18.7 317.7 37.3 319.3 56.2 321C75 322.7 94 324.3 112.8 325.2C131.7 326 150.3 326 169 326.8C187.7 327.7 206.3 329.3 225 327.7C243.7 326 262.3 321 281.2 320.2C300 319.3 319 322.7 337.8 321C356.7 319.3 375.3 312.7 394 310.2C412.7 307.7 431.3 309.3 450 313.5C468.7 317.7 487.3 324.3 506.2 324.3C525 324.3 544 317.7 562.8 316C581.7 314.3 600.3 317.7 619 318.5C637.7 319.3 656.3 317.7 675 317.7C693.7 317.7 712.3 319.3 731.2 320.2C750 321 769 321 787.8 321C806.7 321 825.3 321 844 319.3C862.7 317.7 881.3 314.3 890.7 312.7L900 311L900 284L890.7 285.7C881.3 287.3 862.7 290.7 844 292.3C825.3 294 806.7 294 787.8 294C769 294 750 294 731.2 293.2C712.3 292.3 693.7 290.7 675 290.7C656.3 290.7 637.7 292.3 619 291.5C600.3 290.7 581.7 287.3 562.8 289C544 290.7 525 297.3 506.2 297.3C487.3 297.3 468.7 290.7 450 286.5C431.3 282.3 412.7 280.7 394 283.2C375.3 285.7 356.7 292.3 337.8 294C319 295.7 300 292.3 281.2 293.2C262.3 294 243.7 299 225 300.7C206.3 302.3 187.7 300.7 169 299.8C150.3 299 131.7 299 112.8 298.2C94 297.3 75 295.7 56.2 294C37.3 292.3 18.7 290.7 9.3 289.8L0 289Z" fill="#222d79"></path><path d="M0 351L9.3 351.8C18.7 352.7 37.3 354.3 56.2 356.8C75 359.3 94 362.7 112.8 364.3C131.7 366 150.3 366 169 366C187.7 366 206.3 366 225 363.5C243.7 361 262.3 356 281.2 355.2C300 354.3 319 357.7 337.8 356.8C356.7 356 375.3 351 394 349.3C412.7 347.7 431.3 349.3 450 352.7C468.7 356 487.3 361 506.2 361C525 361 544 356 562.8 354.3C581.7 352.7 600.3 354.3 619 355.2C637.7 356 656.3 356 675 356C693.7 356 712.3 356 731.2 356C750 356 769 356 787.8 356.8C806.7 357.7 825.3 359.3 844 358.5C862.7 357.7 881.3 354.3 890.7 352.7L900 351L900 309L890.7 310.7C881.3 312.3 862.7 315.7 844 317.3C825.3 319 806.7 319 787.8 319C769 319 750 319 731.2 318.2C712.3 317.3 693.7 315.7 675 315.7C656.3 315.7 637.7 317.3 619 316.5C600.3 315.7 581.7 312.3 562.8 314C544 315.7 525 322.3 506.2 322.3C487.3 322.3 468.7 315.7 450 311.5C431.3 307.3 412.7 305.7 394 308.2C375.3 310.7 356.7 317.3 337.8 319C319 320.7 300 317.3 281.2 318.2C262.3 319 243.7 324 225 325.7C206.3 327.3 187.7 325.7 169 324.8C150.3 324 131.7 324 112.8 323.2C94 322.3 75 320.7 56.2 319C37.3 317.3 18.7 315.7 9.3 314.8L0 314Z" fill="#222b73"></path><path d="M0 446L9.3 446C18.7 446 37.3 446 56.2 446.8C75 447.7 94 449.3 112.8 450.2C131.7 451 150.3 451 169 451C187.7 451 206.3 451 225 451C243.7 451 262.3 451 281.2 450.2C300 449.3 319 447.7 337.8 446.8C356.7 446 375.3 446 394 446C412.7 446 431.3 446 450 446.8C468.7 447.7 487.3 449.3 506.2 449.3C525 449.3 544 447.7 562.8 446.8C581.7 446 600.3 446 619 446C637.7 446 656.3 446 675 446.8C693.7 447.7 712.3 449.3 731.2 450.2C750 451 769 451 787.8 451C806.7 451 825.3 451 844 450.2C862.7 449.3 881.3 447.7 890.7 446.8L900 446L900 349L890.7 350.7C881.3 352.3 862.7 355.7 844 356.5C825.3 357.3 806.7 355.7 787.8 354.8C769 354 750 354 731.2 354C712.3 354 693.7 354 675 354C656.3 354 637.7 354 619 353.2C600.3 352.3 581.7 350.7 562.8 352.3C544 354 525 359 506.2 359C487.3 359 468.7 354 450 350.7C431.3 347.3 412.7 345.7 394 347.3C375.3 349 356.7 354 337.8 354.8C319 355.7 300 352.3 281.2 353.2C262.3 354 243.7 359 225 361.5C206.3 364 187.7 364 169 364C150.3 364 131.7 364 112.8 362.3C94 360.7 75 357.3 56.2 354.8C37.3 352.3 18.7 350.7 9.3 349.8L0 349Z" fill="#23286c"></path><path d="M0 466L9.3 466C18.7 466 37.3 466 56.2 466.8C75 467.7 94 469.3 112.8 470.2C131.7 471 150.3 471 169 471C187.7 471 206.3 471 225 471C243.7 471 262.3 471 281.2 470.2C300 469.3 319 467.7 337.8 466.8C356.7 466 375.3 466 394 466C412.7 466 431.3 466 450 466.8C468.7 467.7 487.3 469.3 506.2 469.3C525 469.3 544 467.7 562.8 466.8C581.7 466 600.3 466 619 466C637.7 466 656.3 466 675 466.8C693.7 467.7 712.3 469.3 731.2 470.2C750 471 769 471 787.8 471C806.7 471 825.3 471 844 470.2C862.7 469.3 881.3 467.7 890.7 466.8L900 466L900 444L890.7 444.8C881.3 445.7 862.7 447.3 844 448.2C825.3 449 806.7 449 787.8 449C769 449 750 449 731.2 448.2C712.3 447.3 693.7 445.7 675 444.8C656.3 444 637.7 444 619 444C600.3 444 581.7 444 562.8 444.8C544 445.7 525 447.3 506.2 447.3C487.3 447.3 468.7 445.7 450 444.8C431.3 444 412.7 444 394 444C375.3 444 356.7 444 337.8 444.8C319 445.7 300 447.3 281.2 448.2C262.3 449 243.7 449 225 449C206.3 449 187.7 449 169 449C150.3 449 131.7 449 112.8 448.2C94 447.3 75 445.7 56.2 444.8C37.3 444 18.7 444 9.3 444L0 444Z" fill="#222566"></path><path d="M0 501L9.3 501C18.7 501 37.3 501 56.2 501C75 501 94 501 112.8 501C131.7 501 150.3 501 169 501C187.7 501 206.3 501 225 501C243.7 501 262.3 501 281.2 501C300 501 319 501 337.8 501C356.7 501 375.3 501 394 501C412.7 501 431.3 501 450 501C468.7 501 487.3 501 506.2 501C525 501 544 501 562.8 501C581.7 501 600.3 501 619 501C637.7 501 656.3 501 675 501C693.7 501 712.3 501 731.2 501C750 501 769 501 787.8 501C806.7 501 825.3 501 844 501C862.7 501 881.3 501 890.7 501L900 501L900 464L890.7 464.8C881.3 465.7 862.7 467.3 844 468.2C825.3 469 806.7 469 787.8 469C769 469 750 469 731.2 468.2C712.3 467.3 693.7 465.7 675 464.8C656.3 464 637.7 464 619 464C600.3 464 581.7 464 562.8 464.8C544 465.7 525 467.3 506.2 467.3C487.3 467.3 468.7 465.7 450 464.8C431.3 464 412.7 464 394 464C375.3 464 356.7 464 337.8 464.8C319 465.7 300 467.3 281.2 468.2C262.3 469 243.7 469 225 469C206.3 469 187.7 469 169 469C150.3 469 131.7 469 112.8 468.2C94 467.3 75 465.7 56.2 464.8C37.3 464 18.7 464 9.3 464L0 464Z" fill="#222260"></path></svg>