<svg id="visual" viewBox="0 0 900 900" width="900" height="900" xmlns="http://www.w3.org/2000/svg" xmlns:xlink="http://www.w3.org/1999/xlink" version="1.1"><path d="M0 109L9.3 109C18.7 109 37.3 109 56.2 109C75 109 94 109 112.8 109C131.7 109 150.3 109 169 109C187.7 109 206.3 109 225 107.5C243.7 106 262.3 103 281.2 101.5C300 100 319 100 337.8 100C356.7 100 375.3 100 394 101.5C412.7 103 431.3 106 450 106C468.7 106 487.3 103 506.2 101.5C525 100 544 100 562.8 103C581.7 106 600.3 112 619 113.5C637.7 115 656.3 112 675 110.5C693.7 109 712.3 109 731.2 107.5C750 106 769 103 787.8 103C806.7 103 825.3 106 844 106C862.7 106 881.3 103 890.7 101.5L900 100L900 0L890.7 0C881.3 0 862.7 0 844 0C825.3 0 806.7 0 787.8 0C769 0 750 0 731.2 0C712.3 0 693.7 0 675 0C656.3 0 637.7 0 619 0C600.3 0 581.7 0 562.8 0C544 0 525 0 506.2 0C487.3 0 468.7 0 450 0C431.3 0 412.7 0 394 0C375.3 0 356.7 0 337.8 0C319 0 300 0 281.2 0C262.3 0 243.7 0 225 0C206.3 0 187.7 0 169 0C150.3 0 131.7 0 112.8 0C94 0 75 0 56.2 0C37.3 0 18.7 0 9.3 0L0 0Z" fill="#0044a9"></path><path d="M0 280L9.3 283C18.7 286 37.3 292 56.2 293.5C75 295 94 292 112.8 292C131.7 292 150.3 295 169 296.5C187.7 298 206.3 298 225 296.5C243.7 295 262.3 292 281.2 292C300 292 319 295 337.8 292C356.7 289 375.3 280 394 277C412.7 274 431.3 277 450 281.5C468.7 286 487.3 292 506.2 292C525 292 544 286 562.8 286C581.7 286 600.3 292 619 293.5C637.7 295 656.3 292 675 290.5C693.7 289 712.3 289 731.2 289C750 289 769 289 787.8 290.5C806.7 292 825.3 295 844 293.5C862.7 292 881.3 286 890.7 283L900 280L900 98L890.7 99.5C881.3 101 862.7 104 844 104C825.3 104 806.7 101 787.8 101C769 101 750 104 731.2 105.5C712.3 107 693.7 107 675 108.5C656.3 110 637.7 113 619 111.5C600.3 110 581.7 104 562.8 101C544 98 525 98 506.2 99.5C487.3 101 468.7 104 450 104C431.3 104 412.7 101 394 99.5C375.3 98 356.7 98 337.8 98C319 98 300 98 281.2 99.5C262.3 101 243.7 104 225 105.5C206.3 107 187.7 107 169 107C150.3 107 131.7 107 112.8 107C94 107 75 107 56.2 107C37.3 107 18.7 107 9.3 107L0 107Z" fill="#0d41a2"></path><path d="M0 316L9.3 319C18.7 322 37.3 328 56.2 329.5C75 331 94 328 112.8 328C131.7 328 150.3 331 169 332.5C187.7 334 206.3 334 225 332.5C243.7 331 262.3 328 281.2 328C300 328 319 331 337.8 328C356.7 325 375.3 316 394 313C412.7 310 431.3 313 450 317.5C468.7 322 487.3 328 506.2 328C525 328 544 322 562.8 322C581.7 322 600.3 328 619 329.5C637.7 331 656.3 328 675 326.5C693.7 325 712.3 325 731.2 325C750 325 769 325 787.8 326.5C806.7 328 825.3 331 844 329.5C862.7 328 881.3 322 890.7 319L900 316L900 278L890.7 281C881.3 284 862.7 290 844 291.5C825.3 293 806.7 290 787.8 288.5C769 287 750 287 731.2 287C712.3 287 693.7 287 675 288.5C656.3 290 637.7 293 619 291.5C600.3 290 581.7 284 562.8 284C544 284 525 290 506.2 290C487.3 290 468.7 284 450 279.5C431.3 275 412.7 272 394 275C375.3 278 356.7 287 337.8 290C319 293 300 290 281.2 290C262.3 290 243.7 293 225 294.5C206.3 296 187.7 296 169 294.5C150.3 293 131.7 290 112.8 290C94 290 75 293 56.2 291.5C37.3 290 18.7 284 9.3 281L0 278Z" fill="#153d9b"></path><path d="M0 361L9.3 364C18.7 367 37.3 373 56.2 376C75 379 94 379 112.8 380.5C131.7 382 150.3 385 169 385C187.7 385 206.3 382 225 379C243.7 376 262.3 373 281.2 373C300 373 319 376 337.8 373C356.7 370 375.3 361 394 359.5C412.7 358 431.3 364 450 370C468.7 376 487.3 382 506.2 382C525 382 544 376 562.8 376C581.7 376 600.3 382 619 382C637.7 382 656.3 376 675 373C693.7 370 712.3 370 731.2 370C750 370 769 370 787.8 371.5C806.7 373 825.3 376 844 374.5C862.7 373 881.3 367 890.7 364L900 361L900 314L890.7 317C881.3 320 862.7 326 844 327.5C825.3 329 806.7 326 787.8 324.5C769 323 750 323 731.2 323C712.3 323 693.7 323 675 324.5C656.3 326 637.7 329 619 327.5C600.3 326 581.7 320 562.8 320C544 320 525 326 506.2 326C487.3 326 468.7 320 450 315.5C431.3 311 412.7 308 394 311C375.3 314 356.7 323 337.8 326C319 329 300 326 281.2 326C262.3 326 243.7 329 225 330.5C206.3 332 187.7 332 169 330.5C150.3 329 131.7 326 112.8 326C94 326 75 329 56.2 327.5C37.3 326 18.7 320 9.3 317L0 314Z" fill="#193a94"></path><path d="M0 397L9.3 400C18.7 403 37.3 409 56.2 412C75 415 94 415 112.8 416.5C131.7 418 150.3 421 169 421C187.7 421 206.3 418 225 415C243.7 412 262.3 409 281.2 409C300 409 319 412 337.8 409C356.7 406 375.3 397 394 395.5C412.7 394 431.3 400 450 406C468.7 412 487.3 418 506.2 418C525 418 544 412 562.8 412C581.7 412 600.3 418 619 418C637.7 418 656.3 412 675 409C693.7 406 712.3 406 731.2 406C750 406 769 406 787.8 407.5C806.7 409 825.3 412 844 410.5C862.7 409 881.3 403 890.7 400L900 397L900 359L890.7 362C881.3 365 862.7 371 844 372.5C825.3 374 806.7 371 787.8 369.5C769 368 750 368 731.2 368C712.3 368 693.7 368 675 371C656.3 374 637.7 380 619 380C600.3 380 581.7 374 562.8 374C544 374 525 380 506.2 380C487.3 380 468.7 374 450 368C431.3 362 412.7 356 394 357.5C375.3 359 356.7 368 337.8 371C319 374 300 371 281.2 371C262.3 371 243.7 374 225 377C206.3 380 187.7 383 169 383C150.3 383 131.7 380 112.8 378.5C94 377 75 377 56.2 374C37.3 371 18.7 365 9.3 362L0 359Z" fill="#1d378d"></path><path d="M0 478L9.3 479.5C18.7 481 37.3 484 56.2 487C75 490 94 493 112.8 494.5C131.7 496 150.3 496 169 497.5C187.7 499 206.3 502 225 500.5C243.7 499 262.3 493 281.2 493C300 493 319 499 337.8 494.5C356.7 490 375.3 475 394 470.5C412.7 466 431.3 472 450 481C468.7 490 487.3 502 506.2 502C525 502 544 490 562.8 487C581.7 484 600.3 490 619 490C637.7 490 656.3 484 675 482.5C693.7 481 712.3 484 731.2 485.5C750 487 769 487 787.8 488.5C806.7 490 825.3 493 844 490C862.7 487 881.3 478 890.7 473.5L900 469L900 395L890.7 398C881.3 401 862.7 407 844 408.5C825.3 410 806.7 407 787.8 405.5C769 404 750 404 731.2 404C712.3 404 693.7 404 675 407C656.3 410 637.7 416 619 416C600.3 416 581.7 410 562.8 410C544 410 525 416 506.2 416C487.3 416 468.7 410 450 404C431.3 398 412.7 392 394 393.5C375.3 395 356.7 404 337.8 407C319 410 300 407 281.2 407C262.3 407 243.7 410 225 413C206.3 416 187.7 419 169 419C150.3 419 131.7 416 112.8 414.5C94 413 75 413 56.2 410C37.3 407 18.7 401 9.3 398L0 395Z" fill="#1f3486"></path><path d="M0 523L9.3 524.5C18.7 526 37.3 529 56.2 532C75 535 94 538 112.8 539.5C131.7 541 150.3 541 169 542.5C187.7 544 206.3 547 225 544C243.7 541 262.3 532 281.2 530.5C300 529 319 535 337.8 532C356.7 529 375.3 517 394 512.5C412.7 508 431.3 511 450 518.5C468.7 526 487.3 538 506.2 538C525 538 544 526 562.8 523C581.7 520 600.3 526 619 527.5C637.7 529 656.3 526 675 526C693.7 526 712.3 529 731.2 530.5C750 532 769 532 787.8 532C806.7 532 825.3 532 844 529C862.7 526 881.3 520 890.7 517L900 514L900 467L890.7 471.5C881.3 476 862.7 485 844 488C825.3 491 806.7 488 787.8 486.5C769 485 750 485 731.2 483.5C712.3 482 693.7 479 675 480.5C656.3 482 637.7 488 619 488C600.3 488 581.7 482 562.8 485C544 488 525 500 506.2 500C487.3 500 468.7 488 450 479C431.3 470 412.7 464 394 468.5C375.3 473 356.7 488 337.8 492.5C319 497 300 491 281.2 491C262.3 491 243.7 497 225 498.5C206.3 500 187.7 497 169 495.5C150.3 494 131.7 494 112.8 492.5C94 491 75 488 56.2 485C37.3 482 18.7 479 9.3 477.5L0 476Z" fill="#213080"></path><path d="M0 568L9.3 569.5C18.7 571 37.3 574 56.2 577C75 580 94 583 112.8 584.5C131.7 586 150.3 586 169 587.5C187.7 589 206.3 592 225 589C243.7 586 262.3 577 281.2 575.5C300 574 319 580 337.8 577C356.7 574 375.3 562 394 557.5C412.7 553 431.3 556 450 563.5C468.7 571 487.3 583 506.2 583C525 583 544 571 562.8 568C581.7 565 600.3 571 619 572.5C637.7 574 656.3 571 675 571C693.7 571 712.3 574 731.2 575.5C750 577 769 577 787.8 577C806.7 577 825.3 577 844 574C862.7 571 881.3 565 890.7 562L900 559L900 512L890.7 515C881.3 518 862.7 524 844 527C825.3 530 806.7 530 787.8 530C769 530 750 530 731.2 528.5C712.3 527 693.7 524 675 524C656.3 524 637.7 527 619 525.5C600.3 524 581.7 518 562.8 521C544 524 525 536 506.2 536C487.3 536 468.7 524 450 516.5C431.3 509 412.7 506 394 510.5C375.3 515 356.7 527 337.8 530C319 533 300 527 281.2 528.5C262.3 530 243.7 539 225 542C206.3 545 187.7 542 169 540.5C150.3 539 131.7 539 112.8 537.5C94 536 75 533 56.2 530C37.3 527 18.7 524 9.3 522.5L0 521Z" fill="#222d79"></path><path d="M0 631L9.3 632.5C18.7 634 37.3 637 56.2 641.5C75 646 94 652 112.8 655C131.7 658 150.3 658 169 658C187.7 658 206.3 658 225 653.5C243.7 649 262.3 640 281.2 638.5C300 637 319 643 337.8 641.5C356.7 640 375.3 631 394 628C412.7 625 431.3 628 450 634C468.7 640 487.3 649 506.2 649C525 649 544 640 562.8 637C581.7 634 600.3 637 619 638.5C637.7 640 656.3 640 675 640C693.7 640 712.3 640 731.2 640C750 640 769 640 787.8 641.5C806.7 643 825.3 646 844 644.5C862.7 643 881.3 637 890.7 634L900 631L900 557L890.7 560C881.3 563 862.7 569 844 572C825.3 575 806.7 575 787.8 575C769 575 750 575 731.2 573.5C712.3 572 693.7 569 675 569C656.3 569 637.7 572 619 570.5C600.3 569 581.7 563 562.8 566C544 569 525 581 506.2 581C487.3 581 468.7 569 450 561.5C431.3 554 412.7 551 394 555.5C375.3 560 356.7 572 337.8 575C319 578 300 572 281.2 573.5C262.3 575 243.7 584 225 587C206.3 590 187.7 587 169 585.5C150.3 584 131.7 584 112.8 582.5C94 581 75 578 56.2 575C37.3 572 18.7 569 9.3 567.5L0 566Z" fill="#222b73"></path><path d="M0 802L9.3 802C18.7 802 37.3 802 56.2 803.5C75 805 94 808 112.8 809.5C131.7 811 150.3 811 169 811C187.7 811 206.3 811 225 811C243.7 811 262.3 811 281.2 809.5C300 808 319 805 337.8 803.5C356.7 802 375.3 802 394 802C412.7 802 431.3 802 450 803.5C468.7 805 487.3 808 506.2 808C525 808 544 805 562.8 803.5C581.7 802 600.3 802 619 802C637.7 802 656.3 802 675 803.5C693.7 805 712.3 808 731.2 809.5C750 811 769 811 787.8 811C806.7 811 825.3 811 844 809.5C862.7 808 881.3 805 890.7 803.5L900 802L900 629L890.7 632C881.3 635 862.7 641 844 642.5C825.3 644 806.7 641 787.8 639.5C769 638 750 638 731.2 638C712.3 638 693.7 638 675 638C656.3 638 637.7 638 619 636.5C600.3 635 581.7 632 562.8 635C544 638 525 647 506.2 647C487.3 647 468.7 638 450 632C431.3 626 412.7 623 394 626C375.3 629 356.7 638 337.8 639.5C319 641 300 635 281.2 636.5C262.3 638 243.7 647 225 651.5C206.3 656 187.7 656 169 656C150.3 656 131.7 656 112.8 653C94 650 75 644 56.2 639.5C37.3 635 18.7 632 9.3 630.5L0 629Z" fill="#23286c"></path><path d="M0 838L9.3 838C18.7 838 37.3 838 56.2 839.5C75 841 94 844 112.8 845.5C131.7 847 150.3 847 169 847C187.7 847 206.3 847 225 847C243.7 847 262.3 847 281.2 845.5C300 844 319 841 337.8 839.5C356.7 838 375.3 838 394 838C412.7 838 431.3 838 450 839.5C468.7 841 487.3 844 506.2 844C525 844 544 841 562.8 839.5C581.7 838 600.3 838 619 838C637.7 838 656.3 838 675 839.5C693.7 841 712.3 844 731.2 845.5C750 847 769 847 787.8 847C806.7 847 825.3 847 844 845.5C862.7 844 881.3 841 890.7 839.5L900 838L900 800L890.7 801.5C881.3 803 862.7 806 844 807.5C825.3 809 806.7 809 787.8 809C769 809 750 809 731.2 807.5C712.3 806 693.7 803 675 801.5C656.3 800 637.7 800 619 800C600.3 800 581.7 800 562.8 801.5C544 803 525 806 506.2 806C487.3 806 468.7 803 450 801.5C431.3 800 412.7 800 394 800C375.3 800 356.7 800 337.8 801.5C319 803 300 806 281.2 807.5C262.3 809 243.7 809 225 809C206.3 809 187.7 809 169 809C150.3 809 131.7 809 112.8 807.5C94 806 75 803 56.2 801.5C37.3 800 18.7 800 9.3 800L0 800Z" fill="#222566"></path><path d="M0 901L9.3 901C18.7 901 37.3 901 56.2 901C75 901 94 901 112.8 901C131.7 901 150.3 901 169 901C187.7 901 206.3 901 225 901C243.7 901 262.3 901 281.2 901C300 901 319 901 337.8 901C356.7 901 375.3 901 394 901C412.7 901 431.3 901 450 901C468.7 901 487.3 901 506.2 901C525 901 544 901 562.8 901C581.7 901 600.3 901 619 901C637.7 901 656.3 901 675 901C693.7 901 712.3 901 731.2 901C750 901 769 901 787.8 901C806.7 901 825.3 901 844 901C862.7 901 881.3 901 890.7 901L900 901L900 836L890.7 837.5C881.3 839 862.7 842 844 843.5C825.3 845 806.7 845 787.8 845C769 845 750 845 731.2 843.5C712.3 842 693.7 839 675 837.5C656.3 836 637.7 836 619 836C600.3 836 581.7 836 562.8 837.5C544 839 525 842 506.2 842C487.3 842 468.7 839 450 837.5C431.3 836 412.7 836 394 836C375.3 836 356.7 836 337.8 837.5C319 839 300 842 281.2 843.5C262.3 845 243.7 845 225 845C206.3 845 187.7 845 169 845C150.3 845 131.7 845 112.8 843.5C94 842 75 839 56.2 837.5C37.3 836 18.7 836 9.3 836L0 836Z" fill="#222260"></path></svg>